<svg width="74" height="22" viewBox="0 0 74 22" fill="none" xmlns="http://www.w3.org/2000/svg">
<path d="M9.20508 9.93146L9.20961 9.92845V9.9209L9.20508 9.93146Z" fill="white"/>
<path d="M11.1131 16.0451C11.9164 16.0451 12.5676 15.394 12.5676 14.5907C12.5676 13.7874 11.9164 13.1362 11.1131 13.1362C10.3099 13.1362 9.65869 13.7874 9.65869 14.5907C9.65869 15.394 10.3099 16.0451 11.1131 16.0451Z" fill="white"/>
<path d="M54.6568 6.83515C55.4858 6.83515 56.1579 6.1631 56.1579 5.33408C56.1579 4.50506 55.4858 3.83301 54.6568 3.83301C53.8278 3.83301 53.1558 4.50506 53.1558 5.33408C53.1558 6.1631 53.8278 6.83515 54.6568 6.83515Z" fill="white"/>
<path d="M24.5096 21.0659C24.3433 20.8997 24.261 20.651 24.261 20.3185V8.77145C24.261 8.49486 24.3076 8.30062 24.3993 8.19029C24.491 8.07996 24.6852 8.02402 24.9804 8.02402H26.5592C26.7628 8.02402 26.9104 8.06598 27.0021 8.14834C27.0938 8.23069 27.1497 8.37521 27.1683 8.57721L27.2507 9.57482C28.34 8.26488 29.7711 7.60913 31.5426 7.60913C32.3553 7.60913 32.9722 7.74743 33.3979 8.02402C33.5083 8.09861 33.5782 8.17631 33.6062 8.25866C33.6341 8.34102 33.6295 8.43892 33.5922 8.54924L33.0934 10.2104C33.0374 10.3953 32.9364 10.487 32.7888 10.487L32.5666 10.431C32.1237 10.2275 31.6156 10.1265 31.0438 10.1265C30.1021 10.1265 29.3267 10.3891 28.7176 10.9158C28.1085 11.4426 27.8039 12.1574 27.8039 13.0618V20.317C27.8039 20.6495 27.7246 20.8981 27.5692 21.0644C27.4123 21.2307 27.1404 21.313 26.7519 21.313H25.3114C24.9432 21.3161 24.6759 21.2322 24.5096 21.0659Z" fill="white"/>
<path d="M36.8692 21.0658C36.703 20.8995 36.6206 20.6509 36.6206 20.3184V8.7713C36.6206 8.4947 36.6672 8.30046 36.7589 8.19014C36.8506 8.07981 37.0448 8.02387 37.3401 8.02387H38.9188C39.3244 8.02387 39.5373 8.20878 39.5559 8.57706L39.6119 9.68499C40.8674 8.30046 42.6668 7.60742 45.0117 7.60742C46.5065 7.60742 47.7108 8.00833 48.6245 8.8117C49.5382 9.61507 49.9951 10.8193 49.9951 12.4261V20.3184C49.9951 20.6509 49.9158 20.8995 49.7604 21.0658C49.6035 21.232 49.3409 21.3144 48.971 21.3144H47.5042C47.1343 21.3144 46.867 21.232 46.7008 21.0658C46.5345 20.8995 46.4522 20.6509 46.4522 20.3184V12.6483C46.4522 11.7439 46.2439 11.1022 45.829 10.723C45.4142 10.3454 44.7444 10.1558 43.8214 10.1558C42.8424 10.1558 41.9893 10.4184 41.2606 10.9452C40.5318 11.472 40.1666 12.1495 40.1666 12.9808V20.3184C40.1666 20.6509 40.0874 20.8995 39.932 21.0658C39.775 21.232 39.5031 21.3144 39.1146 21.3144H37.6742C37.3028 21.316 37.0355 21.232 36.8692 21.0658Z" fill="white"/>
<path d="M53.1339 21.0658C52.9676 20.8996 52.8853 20.6509 52.8853 20.3184V9.04795C52.8853 8.69677 52.9676 8.43882 53.1339 8.27255C53.3001 8.10628 53.5674 8.02393 53.9372 8.02393H55.3777C55.746 8.02393 56.0148 8.10628 56.1811 8.27255C56.3473 8.43882 56.4297 8.69677 56.4297 9.04795V20.3184C56.4297 20.6509 56.3505 20.8996 56.1935 21.0658C56.0366 21.2321 55.7646 21.3145 55.3762 21.3145H53.9357C53.5674 21.316 53.3001 21.2321 53.1339 21.0658Z" fill="white"/>
<path d="M60.9331 20.0839C59.8625 18.9853 59.3264 17.4391 59.3264 15.4455C59.3264 13.8947 59.6683 12.5241 60.3504 11.3338C61.0326 10.1435 62.0069 9.22519 63.2718 8.57877C64.5366 7.93234 66.0082 7.60913 67.688 7.60913C70.0328 7.60913 72.0172 8.16232 73.641 9.27025V20.5687C73.641 20.8453 73.5804 21.0395 73.4607 21.1499C73.3411 21.2602 73.1328 21.3161 72.8376 21.3161H71.3148C71.1112 21.3161 70.9589 21.2742 70.8579 21.1918C70.7554 21.1095 70.687 20.9743 70.6497 20.7909L70.4275 19.7109C69.8557 20.4133 69.1486 20.9245 68.3095 21.2477C67.4689 21.571 66.4495 21.7326 65.2499 21.7326C63.4427 21.731 62.0038 21.1825 60.9331 20.0839ZM69.1704 18.3528C69.9178 17.781 70.2923 17.0242 70.2923 16.0826V10.6828C69.9054 10.4792 69.5123 10.3362 69.116 10.2539C68.7182 10.1715 68.2334 10.1296 67.6616 10.1296C66.2024 10.1296 65.0308 10.5911 64.1451 11.5141C63.2593 12.4371 62.8165 13.7113 62.8165 15.3351C62.8165 16.6637 63.1257 17.6427 63.7442 18.2705C64.3626 18.8982 65.3089 19.2121 66.5831 19.2121C67.5605 19.2106 68.423 18.9247 69.1704 18.3528Z" fill="white"/>
<path d="M11.1134 16.9573C8.70796 16.9573 6.75781 18.9074 6.75781 21.3129H15.469C15.469 18.9074 13.5188 16.9573 11.1134 16.9573Z" fill="white"/>
<path d="M0.986302 20.4395C0.924145 20.5855 0.893066 20.7207 0.893066 20.845C0.893066 21.1574 1.06866 21.3127 1.42295 21.3127H4.13762C4.408 21.3127 4.60068 21.277 4.71412 21.204C4.74675 21.1822 4.77938 21.1527 4.81201 21.1185L7.16152 15.1453L7.81571 13.4826L8.82419 10.9171L10.3051 7.15357C10.3128 7.13337 10.3128 7.11006 10.3051 7.08831L8.54915 2.88344C8.51963 2.81196 8.42018 2.81196 8.3891 2.88344L0.986302 20.4395Z" fill="#FBB04D"/>
<path d="M21.2338 20.4393L18.0934 12.9915L17.7189 12.1042L13.7471 2.68597L12.9966 0.908306C12.8723 0.595971 12.7418 0.383087 12.6066 0.268098C12.4714 0.154663 12.2585 0.097168 11.9664 0.097168H10.2508C9.98047 0.097168 9.77224 0.154663 9.62617 0.268098C9.50031 0.367548 9.38376 0.543138 9.27344 0.788655L11.0931 5.1458L11.626 6.42311L11.7737 6.79916L14.3361 13.3116L15.0555 15.1421L17.405 21.1168C17.4376 21.151 17.4703 21.1805 17.5029 21.2023C17.6164 21.2753 17.809 21.3111 18.0794 21.3111H20.7941C21.1468 21.3111 21.324 21.1557 21.324 20.8433C21.3271 20.719 21.296 20.5838 21.2338 20.4393Z" fill="#FBB04D"/>
</svg>
