<svg width="273" height="126" viewBox="0 0 273 126" fill="none" xmlns="http://www.w3.org/2000/svg">
<g filter="url(#filter0_d_1912_21272)">
<rect x="10" y="29" width="253" height="46" rx="23" fill="#FBB04D"/>
</g>
<path d="M45.424 59.968L43.728 57.936C43.2587 58.0533 42.7787 58.112 42.288 58.112C41.2427 58.112 40.2827 57.8667 39.408 57.376C38.5333 56.8853 37.84 56.208 37.328 55.344C36.816 54.4693 36.56 53.4827 36.56 52.384C36.56 51.296 36.816 50.32 37.328 49.456C37.84 48.5813 38.5333 47.8987 39.408 47.408C40.2827 46.9173 41.2427 46.672 42.288 46.672C43.344 46.672 44.304 46.9173 45.168 47.408C46.0427 47.8987 46.7307 48.5813 47.232 49.456C47.744 50.32 48 51.296 48 52.384C48 53.376 47.7867 54.2827 47.36 55.104C46.944 55.9147 46.3733 56.576 45.648 57.088L48.208 59.968H45.424ZM38.864 52.384C38.864 53.1307 39.008 53.7867 39.296 54.352C39.584 54.9173 39.984 55.3547 40.496 55.664C41.0187 55.9627 41.616 56.112 42.288 56.112C42.96 56.112 43.552 55.9627 44.064 55.664C44.576 55.3547 44.976 54.9173 45.264 54.352C45.552 53.7867 45.696 53.1307 45.696 52.384C45.696 51.6373 45.552 50.9867 45.264 50.432C44.976 49.8667 44.576 49.4347 44.064 49.136C43.552 48.8373 42.96 48.688 42.288 48.688C41.616 48.688 41.0187 48.8373 40.496 49.136C39.984 49.4347 39.584 49.8667 39.296 50.432C39.008 50.9867 38.864 51.6373 38.864 52.384ZM58.2657 49.136V58H56.0098V56.88C55.7218 57.264 55.3431 57.568 54.8738 57.792C54.4151 58.0053 53.9138 58.112 53.3698 58.112C52.6764 58.112 52.0631 57.968 51.5297 57.68C50.9964 57.3813 50.5751 56.9493 50.2657 56.384C49.9671 55.808 49.8177 55.1253 49.8177 54.336V49.136H52.0577V54.016C52.0577 54.72 52.2338 55.264 52.5858 55.648C52.9378 56.0213 53.4178 56.208 54.0258 56.208C54.6444 56.208 55.1298 56.0213 55.4818 55.648C55.8338 55.264 56.0098 54.72 56.0098 54.016V49.136H58.2657ZM68.9159 53.376C68.9159 53.696 68.8945 53.984 68.8519 54.24H62.3719C62.4252 54.88 62.6492 55.3813 63.0439 55.744C63.4385 56.1067 63.9239 56.288 64.4999 56.288C65.3319 56.288 65.9239 55.9307 66.2759 55.216H68.6919C68.4359 56.0693 67.9452 56.7733 67.2199 57.328C66.4945 57.872 65.6039 58.144 64.5479 58.144C63.6945 58.144 62.9265 57.9573 62.2439 57.584C61.5719 57.2 61.0439 56.6613 60.6599 55.968C60.2865 55.2747 60.0999 54.4747 60.0999 53.568C60.0999 52.6507 60.2865 51.8453 60.6599 51.152C61.0332 50.4587 61.5559 49.9253 62.2279 49.552C62.8999 49.1787 63.6732 48.992 64.5479 48.992C65.3905 48.992 66.1425 49.1733 66.8039 49.536C67.4759 49.8987 67.9932 50.416 68.3559 51.088C68.7292 51.7493 68.9159 52.512 68.9159 53.376ZM66.5959 52.736C66.5852 52.16 66.3772 51.7013 65.9719 51.36C65.5665 51.008 65.0705 50.832 64.4839 50.832C63.9292 50.832 63.4599 51.0027 63.0759 51.344C62.7025 51.6747 62.4732 52.1387 62.3879 52.736H66.5959ZM72.9909 50.512C73.2789 50.0427 73.6522 49.6747 74.1109 49.408C74.5802 49.1413 75.1135 49.008 75.7109 49.008V51.36H75.1189C74.4149 51.36 73.8815 51.5253 73.5189 51.856C73.1669 52.1867 72.9909 52.7627 72.9909 53.584V58H70.7509V49.136H72.9909V50.512ZM81.3556 58.144C80.5023 58.144 79.7343 57.9573 79.0516 57.584C78.369 57.2 77.8303 56.6613 77.4356 55.968C77.0516 55.2747 76.8596 54.4747 76.8596 53.568C76.8596 52.6613 77.057 51.8613 77.4516 51.168C77.857 50.4747 78.4063 49.9413 79.0996 49.568C79.793 49.184 80.5663 48.992 81.4196 48.992C82.273 48.992 83.0463 49.184 83.7396 49.568C84.433 49.9413 84.977 50.4747 85.3716 51.168C85.777 51.8613 85.9796 52.6613 85.9796 53.568C85.9796 54.4747 85.7716 55.2747 85.3556 55.968C84.9503 56.6613 84.3956 57.2 83.6916 57.584C82.9983 57.9573 82.2196 58.144 81.3556 58.144ZM81.3556 56.192C81.761 56.192 82.1396 56.096 82.4916 55.904C82.8543 55.7013 83.1423 55.4027 83.3556 55.008C83.569 54.6133 83.6756 54.1333 83.6756 53.568C83.6756 52.7253 83.4516 52.08 83.0036 51.632C82.5663 51.1733 82.0276 50.944 81.3876 50.944C80.7476 50.944 80.209 51.1733 79.7716 51.632C79.345 52.08 79.1316 52.7253 79.1316 53.568C79.1316 54.4107 79.3396 55.0613 79.7556 55.52C80.1823 55.968 80.7156 56.192 81.3556 56.192ZM94.0753 50.512C94.3633 50.0427 94.7366 49.6747 95.1953 49.408C95.6646 49.1413 96.1979 49.008 96.7953 49.008V51.36H96.2033C95.4993 51.36 94.9659 51.5253 94.6033 51.856C94.2513 52.1867 94.0753 52.7627 94.0753 53.584V58H91.8353V49.136H94.0753V50.512ZM106.744 53.376C106.744 53.696 106.723 53.984 106.68 54.24H100.2C100.253 54.88 100.477 55.3813 100.872 55.744C101.267 56.1067 101.752 56.288 102.328 56.288C103.16 56.288 103.752 55.9307 104.104 55.216H106.52C106.264 56.0693 105.773 56.7733 105.048 57.328C104.323 57.872 103.432 58.144 102.376 58.144C101.523 58.144 100.755 57.9573 100.072 57.584C99.4 57.2 98.872 56.6613 98.488 55.968C98.1147 55.2747 97.928 54.4747 97.928 53.568C97.928 52.6507 98.1147 51.8453 98.488 51.152C98.8613 50.4587 99.384 49.9253 100.056 49.552C100.728 49.1787 101.501 48.992 102.376 48.992C103.219 48.992 103.971 49.1733 104.632 49.536C105.304 49.8987 105.821 50.416 106.184 51.088C106.557 51.7493 106.744 52.512 106.744 53.376ZM104.424 52.736C104.413 52.16 104.205 51.7013 103.8 51.36C103.395 51.008 102.899 50.832 102.312 50.832C101.757 50.832 101.288 51.0027 100.904 51.344C100.531 51.6747 100.301 52.1387 100.216 52.736H104.424ZM108.003 53.568C108.003 52.6507 108.19 51.8507 108.563 51.168C108.936 50.4747 109.454 49.9413 110.115 49.568C110.776 49.184 111.534 48.992 112.387 48.992C113.486 48.992 114.392 49.2693 115.107 49.824C115.832 50.368 116.318 51.136 116.563 52.128H114.147C114.019 51.744 113.8 51.4453 113.491 51.232C113.192 51.008 112.819 50.896 112.371 50.896C111.731 50.896 111.224 51.1307 110.851 51.6C110.478 52.0587 110.291 52.7147 110.291 53.568C110.291 54.4107 110.478 55.0667 110.851 55.536C111.224 55.9947 111.731 56.224 112.371 56.224C113.278 56.224 113.87 55.8187 114.147 55.008H116.563C116.318 55.968 115.832 56.7307 115.107 57.296C114.382 57.8613 113.475 58.144 112.387 58.144C111.534 58.144 110.776 57.9573 110.115 57.584C109.454 57.2 108.936 56.6667 108.563 55.984C108.19 55.2907 108.003 54.4853 108.003 53.568ZM126.644 53.376C126.644 53.696 126.623 53.984 126.58 54.24H120.1C120.153 54.88 120.377 55.3813 120.772 55.744C121.167 56.1067 121.652 56.288 122.228 56.288C123.06 56.288 123.652 55.9307 124.004 55.216H126.42C126.164 56.0693 125.673 56.7733 124.948 57.328C124.223 57.872 123.332 58.144 122.276 58.144C121.423 58.144 120.655 57.9573 119.972 57.584C119.3 57.2 118.772 56.6613 118.388 55.968C118.015 55.2747 117.828 54.4747 117.828 53.568C117.828 52.6507 118.015 51.8453 118.388 51.152C118.761 50.4587 119.284 49.9253 119.956 49.552C120.628 49.1787 121.401 48.992 122.276 48.992C123.119 48.992 123.871 49.1733 124.532 49.536C125.204 49.8987 125.721 50.416 126.084 51.088C126.457 51.7493 126.644 52.512 126.644 53.376ZM124.324 52.736C124.313 52.16 124.105 51.7013 123.7 51.36C123.295 51.008 122.799 50.832 122.212 50.832C121.657 50.832 121.188 51.0027 120.804 51.344C120.431 51.6747 120.201 52.1387 120.116 52.736H124.324ZM130.719 50.432C131.007 50.0053 131.402 49.6587 131.903 49.392C132.415 49.1253 132.996 48.992 133.647 48.992C134.404 48.992 135.087 49.1787 135.695 49.552C136.314 49.9253 136.799 50.4587 137.151 51.152C137.514 51.8347 137.695 52.6293 137.695 53.536C137.695 54.4427 137.514 55.248 137.151 55.952C136.799 56.6453 136.314 57.184 135.695 57.568C135.087 57.952 134.404 58.144 133.647 58.144C132.986 58.144 132.404 58.016 131.903 57.76C131.412 57.4933 131.018 57.152 130.719 56.736V58H128.479V46.16H130.719V50.432ZM135.407 53.536C135.407 53.0027 135.295 52.544 135.071 52.16C134.858 51.7653 134.57 51.4667 134.207 51.264C133.855 51.0613 133.471 50.96 133.055 50.96C132.65 50.96 132.266 51.0667 131.903 51.28C131.551 51.4827 131.263 51.7813 131.039 52.176C130.826 52.5707 130.719 53.0347 130.719 53.568C130.719 54.1013 130.826 54.5653 131.039 54.96C131.263 55.3547 131.551 55.6587 131.903 55.872C132.266 56.0747 132.65 56.176 133.055 56.176C133.471 56.176 133.855 56.0693 134.207 55.856C134.57 55.6427 134.858 55.3387 135.071 54.944C135.295 54.5493 135.407 54.08 135.407 53.536ZM147.763 53.376C147.763 53.696 147.741 53.984 147.699 54.24H141.219C141.272 54.88 141.496 55.3813 141.891 55.744C142.285 56.1067 142.771 56.288 143.347 56.288C144.179 56.288 144.771 55.9307 145.123 55.216H147.539C147.283 56.0693 146.792 56.7733 146.067 57.328C145.341 57.872 144.451 58.144 143.395 58.144C142.541 58.144 141.773 57.9573 141.091 57.584C140.419 57.2 139.891 56.6613 139.507 55.968C139.133 55.2747 138.947 54.4747 138.947 53.568C138.947 52.6507 139.133 51.8453 139.507 51.152C139.88 50.4587 140.403 49.9253 141.075 49.552C141.747 49.1787 142.52 48.992 143.395 48.992C144.237 48.992 144.989 49.1733 145.651 49.536C146.323 49.8987 146.84 50.416 147.203 51.088C147.576 51.7493 147.763 52.512 147.763 53.376ZM145.443 52.736C145.432 52.16 145.224 51.7013 144.819 51.36C144.413 51.008 143.917 50.832 143.331 50.832C142.776 50.832 142.307 51.0027 141.923 51.344C141.549 51.6747 141.32 52.1387 141.235 52.736H145.443ZM151.838 50.512C152.126 50.0427 152.499 49.6747 152.958 49.408C153.427 49.1413 153.96 49.008 154.558 49.008V51.36H153.966C153.262 51.36 152.728 51.5253 152.366 51.856C152.014 52.1867 151.838 52.7627 151.838 53.584V58H149.598V49.136H151.838V50.512ZM171.287 49.008C172.375 49.008 173.25 49.344 173.911 50.016C174.583 50.6773 174.919 51.6053 174.919 52.8V58H172.679V53.104C172.679 52.4107 172.503 51.8827 172.151 51.52C171.799 51.1467 171.319 50.96 170.711 50.96C170.103 50.96 169.618 51.1467 169.255 51.52C168.903 51.8827 168.727 52.4107 168.727 53.104V58H166.487V53.104C166.487 52.4107 166.311 51.8827 165.959 51.52C165.607 51.1467 165.127 50.96 164.519 50.96C163.9 50.96 163.41 51.1467 163.047 51.52C162.695 51.8827 162.519 52.4107 162.519 53.104V58H160.279V49.136H162.519V50.208C162.807 49.8347 163.175 49.5413 163.623 49.328C164.082 49.1147 164.583 49.008 165.127 49.008C165.82 49.008 166.439 49.1573 166.983 49.456C167.527 49.744 167.948 50.16 168.247 50.704C168.535 50.192 168.951 49.7813 169.495 49.472C170.05 49.1627 170.647 49.008 171.287 49.008ZM185.485 53.376C185.485 53.696 185.463 53.984 185.421 54.24H178.941C178.994 54.88 179.218 55.3813 179.613 55.744C180.007 56.1067 180.493 56.288 181.069 56.288C181.901 56.288 182.493 55.9307 182.845 55.216H185.261C185.005 56.0693 184.514 56.7733 183.789 57.328C183.063 57.872 182.173 58.144 181.117 58.144C180.263 58.144 179.495 57.9573 178.813 57.584C178.141 57.2 177.613 56.6613 177.229 55.968C176.855 55.2747 176.669 54.4747 176.669 53.568C176.669 52.6507 176.855 51.8453 177.229 51.152C177.602 50.4587 178.125 49.9253 178.797 49.552C179.469 49.1787 180.242 48.992 181.117 48.992C181.959 48.992 182.711 49.1733 183.373 49.536C184.045 49.8987 184.562 50.416 184.925 51.088C185.298 51.7493 185.485 52.512 185.485 53.376ZM183.165 52.736C183.154 52.16 182.946 51.7013 182.541 51.36C182.135 51.008 181.639 50.832 181.053 50.832C180.498 50.832 180.029 51.0027 179.645 51.344C179.271 51.6747 179.042 52.1387 178.957 52.736H183.165ZM192.232 49.008C193.288 49.008 194.141 49.344 194.792 50.016C195.442 50.6773 195.768 51.6053 195.768 52.8V58H193.528V53.104C193.528 52.4 193.352 51.8613 193 51.488C192.648 51.104 192.168 50.912 191.56 50.912C190.941 50.912 190.45 51.104 190.088 51.488C189.736 51.8613 189.56 52.4 189.56 53.104V58H187.32V49.136H189.56V50.24C189.858 49.856 190.237 49.5573 190.696 49.344C191.165 49.12 191.677 49.008 192.232 49.008ZM200.706 50.976V55.264C200.706 55.5627 200.775 55.7813 200.914 55.92C201.063 56.048 201.308 56.112 201.65 56.112H202.69V58H201.282C199.394 58 198.45 57.0827 198.45 55.248V50.976H197.394V49.136H198.45V46.944H200.706V49.136H202.69V50.976H200.706ZM208.437 58.144C207.584 58.144 206.816 57.9573 206.133 57.584C205.45 57.2 204.912 56.6613 204.517 55.968C204.133 55.2747 203.941 54.4747 203.941 53.568C203.941 52.6613 204.138 51.8613 204.533 51.168C204.938 50.4747 205.488 49.9413 206.181 49.568C206.874 49.184 207.648 48.992 208.501 48.992C209.354 48.992 210.128 49.184 210.821 49.568C211.514 49.9413 212.058 50.4747 212.453 51.168C212.858 51.8613 213.061 52.6613 213.061 53.568C213.061 54.4747 212.853 55.2747 212.437 55.968C212.032 56.6613 211.477 57.2 210.773 57.584C210.08 57.9573 209.301 58.144 208.437 58.144ZM208.437 56.192C208.842 56.192 209.221 56.096 209.573 55.904C209.936 55.7013 210.224 55.4027 210.437 55.008C210.65 54.6133 210.757 54.1333 210.757 53.568C210.757 52.7253 210.533 52.08 210.085 51.632C209.648 51.1733 209.109 50.944 208.469 50.944C207.829 50.944 207.29 51.1733 206.853 51.632C206.426 52.08 206.213 52.7253 206.213 53.568C206.213 54.4107 206.421 55.0613 206.837 55.52C207.264 55.968 207.797 56.192 208.437 56.192ZM217.144 50.512C217.432 50.0427 217.805 49.6747 218.264 49.408C218.733 49.1413 219.267 49.008 219.864 49.008V51.36H219.272C218.568 51.36 218.035 51.5253 217.672 51.856C217.32 52.1867 217.144 52.7627 217.144 53.584V58H214.904V49.136H217.144V50.512ZM222.709 48.08C222.314 48.08 221.983 47.9573 221.717 47.712C221.461 47.456 221.333 47.1413 221.333 46.768C221.333 46.3947 221.461 46.0853 221.717 45.84C221.983 45.584 222.314 45.456 222.709 45.456C223.103 45.456 223.429 45.584 223.685 45.84C223.951 46.0853 224.085 46.3947 224.085 46.768C224.085 47.1413 223.951 47.456 223.685 47.712C223.429 47.9573 223.103 48.08 222.709 48.08ZM223.813 49.136V58H221.573V49.136H223.813ZM225.65 53.536C225.65 52.64 225.826 51.8453 226.178 51.152C226.541 50.4587 227.026 49.9253 227.634 49.552C228.253 49.1787 228.941 48.992 229.698 48.992C230.359 48.992 230.935 49.1253 231.426 49.392C231.927 49.6587 232.327 49.9947 232.626 50.4V49.136H234.882V58H232.626V56.704C232.338 57.12 231.938 57.4667 231.426 57.744C230.925 58.0107 230.343 58.144 229.682 58.144C228.935 58.144 228.253 57.952 227.634 57.568C227.026 57.184 226.541 56.6453 226.178 55.952C225.826 55.248 225.65 54.4427 225.65 53.536ZM232.626 53.568C232.626 53.024 232.519 52.56 232.306 52.176C232.093 51.7813 231.805 51.4827 231.442 51.28C231.079 51.0667 230.69 50.96 230.274 50.96C229.858 50.96 229.474 51.0613 229.122 51.264C228.77 51.4667 228.482 51.7653 228.258 52.16C228.045 52.544 227.938 53.0027 227.938 53.536C227.938 54.0693 228.045 54.5387 228.258 54.944C228.482 55.3387 228.77 55.6427 229.122 55.856C229.485 56.0693 229.869 56.176 230.274 56.176C230.69 56.176 231.079 56.0747 231.442 55.872C231.805 55.6587 232.093 55.36 232.306 54.976C232.519 54.5813 232.626 54.112 232.626 53.568Z" fill="black"/>
<defs>
<filter id="filter0_d_1912_21272" x="0" y="24" width="273" height="66" filterUnits="userSpaceOnUse" color-interpolation-filters="sRGB">
<feFlood flood-opacity="0" result="BackgroundImageFix"/>
<feColorMatrix in="SourceAlpha" type="matrix" values="0 0 0 0 0 0 0 0 0 0 0 0 0 0 0 0 0 0 127 0" result="hardAlpha"/>
<feOffset dy="5"/>
<feGaussianBlur stdDeviation="5"/>
<feComposite in2="hardAlpha" operator="out"/>
<feColorMatrix type="matrix" values="0 0 0 0 0.1125 0 0 0 0 0.1125 0 0 0 0 0.1125 0 0 0 0.4 0"/>
<feBlend mode="normal" in2="BackgroundImageFix" result="effect1_dropShadow_1912_21272"/>
<feBlend mode="normal" in="SourceGraphic" in2="effect1_dropShadow_1912_21272" result="shape"/>
</filter>
</defs>
</svg>
